<svg width="32" height="32" viewBox="0 0 32 32" fill="none" xmlns="http://www.w3.org/2000/svg">
<path d="M24.96 19.68C25.4266 18.5467 25.68 17.3333 25.68 16C25.68 15.04 25.5333 14.12 25.28 13.2667C24.4133 13.4667 23.5066 13.5733 22.56 13.5733C20.6213 13.5754 18.7105 13.1114 16.9887 12.2203C15.2669 11.3292 13.7845 10.0373 12.6666 8.45334C11.4708 11.3469 9.21479 13.6744 6.35996 14.96C6.30663 15.2933 6.30663 15.6533 6.30663 16C6.30663 17.273 6.55735 18.5334 7.04449 19.7095C7.53162 20.8855 8.24563 21.9541 9.14574 22.8542C10.9636 24.6721 13.4291 25.6933 16 25.6933C17.4 25.6933 18.7466 25.3867 19.96 24.84C20.72 26.2933 21.0666 27.0133 21.04 27.0133C18.8533 27.7467 17.16 28.1067 16 28.1067C12.7733 28.1067 9.69329 26.84 7.42663 24.56C6.04796 23.1856 5.02312 21.4973 4.43996 19.64H2.66663V13.5733H4.11996C4.56028 11.43 5.57262 9.44589 7.04955 7.83147C8.52647 6.21704 10.4129 5.03255 12.5087 4.40369C14.6044 3.77482 16.8313 3.72504 18.9531 4.25962C21.0749 4.7942 23.0124 5.8932 24.56 7.44001C26.2403 9.11368 27.3864 11.2481 27.8533 13.5733H29.3333V19.64H29.2533L24.5066 24L17.44 23.2V20.9733H23.88L24.96 19.68ZM12.36 15.6933C12.76 15.6933 13.1466 15.8533 13.4266 16.1467C13.708 16.4304 13.8659 16.8138 13.8659 17.2133C13.8659 17.6129 13.708 17.9963 13.4266 18.28C13.1466 18.56 12.76 18.72 12.36 18.72C11.52 18.72 10.84 18.0533 10.84 17.2133C10.84 16.3733 11.52 15.6933 12.36 15.6933ZM19.6266 15.6933C20.4666 15.6933 21.1333 16.3733 21.1333 17.2133C21.1333 18.0533 20.4666 18.72 19.6266 18.72C18.7866 18.72 18.1066 18.0533 18.1066 17.2133C18.1066 16.8102 18.2668 16.4236 18.5518 16.1385C18.8369 15.8535 19.2235 15.6933 19.6266 15.6933Z" fill="#261817"/>
</svg>
