<svg width="108" height="108" viewBox="0 0 108 108" fill="none" xmlns="http://www.w3.org/2000/svg">
<path d="M108 0H0V108H108V0Z" fill="#261817"/>
<path d="M29.3085 48.2114L29.2699 69.5202L22.0725 70.9309L22.1159 54.1861L21.9356 54.2208L17.7535 71.7776L11.0661 73.088L7.09136 57.132L6.88114 57.1725L6.83775 73.9164L0 75.2577L0.0385714 53.9489L11.9446 51.6153L14.6436 62.7403L14.7931 62.7114L17.4333 50.5401L29.3085 48.2114Z" fill="#B8DDE3"/>
<path d="M44.2569 52.919C44.0322 51.8275 43.5741 51.1158 42.8808 50.7851C42.417 50.5517 41.8847 50.4929 41.2849 50.6105C40.6446 50.7359 40.0911 51.0271 39.6235 51.4842C38.9118 52.1708 38.4412 53.1669 38.2108 54.4696C38.0748 55.2266 38.0102 56.1475 38.015 57.2313C38.0199 58.3161 38.1047 59.2583 38.2696 60.0576C38.503 61.1888 38.987 61.9255 39.7238 62.2678C40.1837 62.4819 40.6938 62.5339 41.2531 62.424C41.9329 62.2909 42.5125 61.9746 42.9917 61.4751C43.6783 60.7722 44.1238 59.804 44.3263 58.5659C44.4295 57.9574 44.4806 57.0394 44.4767 55.8129C44.4758 54.5853 44.4015 53.621 44.2569 52.919ZM52.7975 51.5189C53.1553 53.2546 53.1447 55.0723 52.7667 56.9719C52.2653 59.4839 51.2007 61.5889 49.5749 63.287C47.5219 65.4355 44.685 66.8636 41.066 67.5714C37.6476 68.2415 34.9216 67.8838 32.8889 66.4981C31.2438 65.3795 30.1947 63.72 29.7405 61.5156C29.3789 59.7616 29.3895 57.9439 29.7714 56.0626C30.2766 53.5709 31.3403 51.4649 32.9631 49.7475C34.9766 47.6087 37.7528 46.1912 41.2917 45.4979C44.8701 44.7959 47.6965 45.1855 49.7697 46.6656C51.354 47.7948 52.3636 49.4129 52.7975 51.5189Z" fill="#B8DDE3"/>
<path d="M75.0725 39.2406L67.2657 62.072L57.7588 63.935L50.301 44.0958L58.9381 42.4035L62.7827 54.4002L62.9023 54.3761L66.825 40.8578L75.0725 39.2406Z" fill="#B8DDE3"/>
<path d="M83.4387 37.6004L83.3991 58.9082L75.3628 60.4848L75.4004 39.176L83.4387 37.6004Z" fill="#B8DDE3"/>
<path d="M108 32.7857L107.961 54.0945L96.1152 56.4165L92.1298 42.0737L92.0102 42.0978L91.9765 57.2275L85.049 58.5861L85.0876 37.2774L97.0534 34.9313L100.925 48.87L101.045 48.8469L101.072 34.1434L108 32.7857Z" fill="#B8DDE3"/>
</svg>
