<svg width="269" height="205" viewBox="0 0 269 205" fill="none" xmlns="http://www.w3.org/2000/svg">
<path d="M-1 115.948C-1 92.6576 0.55242 75.1033 3.65726 63.2857C6.7621 51.1805 13.1129 41.7511 22.7097 34.9975C32.3065 28.2439 47.4073 22.8645 68.0121 18.8593V47.3259C57.8508 49.301 51.2178 52.7469 48.1129 57.6636C45.2904 62.5254 43.8791 71.1384 43.8791 83.5027V89.1097L68.8589 84.2541V139.192L-1 152.772V115.948ZM89.6049 98.3366C89.6049 75.0458 91.1573 57.4915 94.2622 45.6739C97.367 33.5687 103.718 24.1393 113.315 17.3857C122.911 10.6321 138.012 5.25269 158.617 1.24752V29.7141C148.738 31.6344 142.246 35.0528 139.141 39.9695C136.319 44.8313 134.907 53.4443 134.907 65.8085V71.4156L159.887 66.56V121.498L89.6049 135.16V98.3366Z" stroke="#B8DDE3" stroke-width="2"/>
<path d="M268 126.461C268 141.988 266.965 153.691 264.895 161.57C262.825 169.64 258.591 175.926 252.194 180.428C245.796 184.931 235.728 188.517 221.992 191.187V172.209C228.766 170.893 233.188 168.595 235.258 165.318C237.14 162.077 238.081 156.335 238.081 148.092V144.354L221.427 147.591V110.965L268 101.912V126.461ZM207.597 138.202C207.597 153.73 206.562 165.432 204.492 173.311C202.422 181.381 198.188 187.667 191.79 192.17C185.392 196.672 175.325 200.258 161.589 202.928V183.951C168.175 182.671 172.503 180.392 174.573 177.114C176.454 173.873 177.395 168.131 177.395 159.888V156.15L160.742 159.387V122.761L207.597 113.654V138.202Z" fill="#B8DDE3" stroke="#B8DDE3" stroke-width="2"/>
</svg>
